<svg width="35" height="30" fill="none" xmlns="http://www.w3.org/2000/svg"><path d="M1.113 28v.61l.598-.12c3.814-.764 6.99-2.429 9.211-5.062 2.223-2.635 3.451-6.194 3.451-10.671V.5H.5v13.653h7.04c-.068 1.813-.515 3.396-1.395 4.656-.954 1.367-2.45 2.402-4.648 2.926l-.384.092V28zm20.127 0v.608l.597-.117c3.864-.764 7.042-2.43 9.251-5.064C33.3 20.79 34.5 17.23 34.5 12.757V.5H20.627v13.653h7.04c-.068 1.813-.515 3.396-1.395 4.656-.954 1.367-2.45 2.402-4.648 2.926l-.384.092V28z" stroke="#6248FF"/></svg>